<?xml version="1.0" encoding="UTF-8" standalone="no"?>
<!-- Created with Inkscape (http://www.inkscape.org/) -->

<svg
   version="1.1"
   id="svg2"
   width="1265.88"
   height="98.26667"
   viewBox="0 0 1265.88 98.26667"
   sodipodi:docname="160726_Volvo_Spread_Word_Mark.eps"
   xmlns:inkscape="http://www.inkscape.org/namespaces/inkscape"
   xmlns:sodipodi="http://sodipodi.sourceforge.net/DTD/sodipodi-0.dtd"
   xmlns="http://www.w3.org/2000/svg"
   xmlns:svg="http://www.w3.org/2000/svg">
  <defs
     id="defs6" />
  <sodipodi:namedview
     id="namedview4"
     pagecolor="#ffffff"
     bordercolor="#000000"
     borderopacity="0.25"
     inkscape:showpageshadow="2"
     inkscape:pageopacity="0.0"
     inkscape:pagecheckerboard="0"
     inkscape:deskcolor="#d1d1d1" />
  <g
     id="g8"
     inkscape:groupmode="layer"
     inkscape:label="ink_ext_XXXXXX"
     transform="matrix(1.3333333,0,0,-1.3333333,0,98.266667)">
    <g
       id="g10"
       transform="scale(0.1)">
      <path
         d="M 160.801,614.57 487.563,20.9063 865.918,20.625 1187.1,614.656 l 161,-0.086 V 722.227 H 863.84 V 614.656 H 1003.7 L 769.82,182.195 532.793,614.57 l 169.98,0.086 -0.039,107.571 H 0.140625 L 0,614.57 h 160.801"
         style="fill:#231f20;fill-opacity:1;fill-rule:nonzero;stroke:none"
         id="path12" />
      <path
         d="m 4324.03,614.852 -0.07,107.375 647.88,-0.09 V 614.852 H 4810.48 V 130.234 h 149.61 c 138.64,0 229.52,91.551 229.52,215.801 h 106.88 V 21.5313 L 4323.96,21.4531 V 130.09 h 163.33 l -0.2,484.762 h -163.06"
         style="fill:#231f20;fill-opacity:1;fill-rule:nonzero;stroke:none"
         id="path14" />
      <path
         d="m 2749.4,111.473 c -118.81,2.152 -171.03,133.449 -168.75,263.925 2.37,135.129 67.01,252.95 178.31,251.02 111.3,-1.953 170.05,-122.035 167.65,-257.094 -2.25,-127.422 -54.84,-260.066 -177.21,-257.851 z m 3.61,625.539 C 2427.67,737.012 2254.9,574.715 2254.9,371.063 2254.9,164.598 2421.27,0 2754.89,0 c 333.52,0 498.12,164.598 498.12,371.063 0,203.652 -174.62,365.949 -500,365.949"
         style="fill:#231f20;fill-opacity:1;fill-rule:nonzero;stroke:none"
         id="path16" />
      <path
         d="m 6401.67,614.57 326.75,-593.6637 378.36,-0.2813 321.18,594.031 160.99,-0.086 V 722.227 H 7104.69 V 614.656 h 139.87 l -233.87,-432.461 -237.03,432.375 169.98,0.086 -0.04,107.571 H 6241 l -0.14,-107.657 h 160.81"
         style="fill:#231f20;fill-opacity:1;fill-rule:nonzero;stroke:none"
         id="path18" />
      <path
         d="m 8990.46,111.473 c -118.8,2.152 -171.02,133.449 -168.75,263.925 2.37,135.129 67.02,252.95 178.32,251.02 111.29,-1.953 170.04,-122.035 167.64,-257.094 -2.24,-127.422 -54.84,-260.066 -177.21,-257.851 z m 3.61,625.539 c -325.33,0 -498.11,-162.297 -498.11,-365.949 C 8495.96,164.598 8662.34,0 8995.95,0 c 333.53,0 498.13,164.598 498.13,371.063 0,203.652 -174.62,365.949 -500.01,365.949"
         style="fill:#231f20;fill-opacity:1;fill-rule:nonzero;stroke:none"
         id="path20" />
    </g>
  </g>
</svg>
